<?xml version="1.0" encoding="UTF-8"?>
<svg width="220px" height="220px" viewBox="0 0 220 220" version="1.1" xmlns="http://www.w3.org/2000/svg" xmlns:xlink="http://www.w3.org/1999/xlink" style="background: #FFFFFF;">
    <!-- Generator: Sketch 46.2 (44496) - http://www.bohemiancoding.com/sketch -->
    <title>Artboard 3</title>
    <desc>Created with Sketch.</desc>
    <defs></defs>
    <g id="Page-1" stroke="none" stroke-width="1" fill="none" fill-rule="evenodd">
        <g id="Artboard-3" fill="#D0021B">
            <g id="Group" transform="translate(1.000000, 13.000000)">
                <path d="M62.9777774,0 L62.9777799,0 C83.248895,0 99.2580424,9.06414324 109,17.1288127 C118.741962,9.06414324 134.751107,0 155.022222,0 C192.103782,0 218,30.7334434 218,67.9090181 C218,98.831709 205.859023,121.842162 186.738194,140.668455 C167.617366,159.494506 141.850153,174.746849 112.860416,192.888475 C110.499621,194.370508 107.500379,194.370508 105.139583,192.888475 C76.1498461,174.746849 50.3826336,159.494506 31.2618051,140.668455 C12.1409767,121.842162 -2.84217094e-14,98.831709 -2.84217094e-14,67.9090181 C-2.84217094e-14,30.7334434 25.8962196,0 62.9777774,0 Z M62.9777774,14.5519117 L62.9777799,14.5519117 C33.6736385,14.5519117 14.5333353,37.1754777 14.5333353,67.9090181 C14.5333353,95.1937311 24.1923582,113.337782 41.4048631,130.284938 C57.7941758,146.421796 81.6297121,161.021244 109,178.109311 C136.37029,161.021244 160.205826,146.421796 176.595139,130.284938 C193.807646,113.337782 203.466667,95.1937311 203.466667,67.9090181 C203.466667,37.1754777 184.326363,14.5519117 155.022222,14.5519117 C136.404029,14.5519117 119.954427,25.8810357 114.222916,31.7565155 C112.853771,33.1734177 110.969022,33.9734088 109,33.9734088 C107.030978,33.9734088 105.146229,33.1734177 103.777083,31.7565155 C98.0455724,25.8810357 81.5959706,14.5519117 62.9777774,14.5519117 Z" id="Combined-Shape" fill-rule="nonzero"></path>
                <path d="M112.009523,60.048002 C121.109468,61.4318927 124.662171,63.5833531 122.113607,68.0518374 C119.565043,72.5203217 118.949804,73.8114658 113.383365,74.8605727 C109.672406,75.5599773 108.078908,74.781563 108.602872,72.5253298 C106.970834,72.7189722 105.421672,75.0111593 103.955387,79.4018909 C102.663577,83.2701641 101.576209,91.5795298 101.583644,93.6931481 C101.588459,95.0619519 101.111448,98.3460416 100.152611,103.545417 C101.957883,103.035466 103.225475,102.410778 103.955387,101.671354 C105.609361,99.9958268 106.633012,97.0498086 109,96.1542302 C112.933845,94.6658127 116.970334,94.0892123 121.109468,94.4244289 C123.064802,93.3850351 124.500839,92.8791701 125.41758,92.906834 C131.240211,93.0825399 134.31439,96.0842918 133.974545,99.103754 C133.55444,102.836313 127.499617,108.158997 115.810077,115.071807 L96.2555783,121.08885 C87.4713573,124.191327 83.4092231,119.370825 84.0691756,106.627342 C85.0591043,87.512118 102.909579,58.6641112 112.009523,60.048002 Z" id="Path-4"></path>
            </g>
        </g>
    </g>
</svg>